<mxfile host="app.diagrams.net" modified="2021-02-12T23:36:08.036Z" agent="5.0 (X11)" etag="2cKrPTVlCRKmJFE8Desp" version="14.3.1" type="github">
  <diagram id="6a731a19-8d31-9384-78a2-239565b7b9f0" name="Page-1">
    <mxGraphModel dx="2700" dy="1608" grid="1" gridSize="10" guides="1" tooltips="1" connect="1" arrows="1" fold="1" page="1" pageScale="1" pageWidth="1169" pageHeight="827" background="#ffffff" math="0" shadow="0">
      <root>
        <mxCell id="0" />
        <mxCell id="1" parent="0" />
        <mxCell id="1350" value="Fuente" style="ellipse;whiteSpace=wrap;html=1;shadow=0;fontFamily=Helvetica;fontSize=20;fontColor=#FFFFFF;align=center;strokeWidth=3;fillColor=#1699D3;strokeColor=none;" parent="1" vertex="1">
          <mxGeometry x="740" y="140" width="120" height="120" as="geometry" />
        </mxCell>
        <mxCell id="1352" value="User" style="ellipse;whiteSpace=wrap;html=1;shadow=0;fontFamily=Helvetica;fontSize=20;align=center;strokeWidth=3;fillColor=#d0cee2;strokeColor=#56517e;" parent="1" vertex="1">
          <mxGeometry x="1510" y="180" width="120" height="120" as="geometry" />
        </mxCell>
        <mxCell id="1353" value="Tweet" style="ellipse;whiteSpace=wrap;html=1;shadow=0;fontFamily=Helvetica;fontSize=20;fontColor=#ffffff;align=center;strokeWidth=3;fillColor=#e51400;strokeColor=#B20000;" parent="1" vertex="1">
          <mxGeometry x="1936" y="806.5" width="120" height="120" as="geometry" />
        </mxCell>
        <mxCell id="1354" value="Tweet" style="ellipse;whiteSpace=wrap;html=1;shadow=0;fontFamily=Helvetica;fontSize=20;fontColor=#ffffff;align=center;strokeWidth=3;fillColor=#e51400;strokeColor=#B20000;" parent="1" vertex="1">
          <mxGeometry x="1711" y="1171.5" width="120" height="120" as="geometry" />
        </mxCell>
        <mxCell id="1355" value="Link" style="ellipse;whiteSpace=wrap;html=1;shadow=0;fontFamily=Helvetica;fontSize=20;fontColor=#FFFFFF;align=center;strokeWidth=3;fillColor=#F08705;strokeColor=none;" parent="1" vertex="1">
          <mxGeometry x="1163.5" y="1309" width="120" height="120" as="geometry" />
        </mxCell>
        <mxCell id="1356" value="User" style="ellipse;whiteSpace=wrap;html=1;shadow=0;fontFamily=Helvetica;fontSize=20;align=center;strokeWidth=3;fillColor=#d0cee2;strokeColor=#56517e;" parent="1" vertex="1">
          <mxGeometry x="558.5" y="1171.5" width="120" height="120" as="geometry" />
        </mxCell>
        <mxCell id="1359" style="endArrow=none;strokeWidth=6;html=1;" parent="1" source="1515" target="1350" edge="1">
          <mxGeometry relative="1" as="geometry" />
        </mxCell>
        <mxCell id="1361" style="endArrow=none;strokeWidth=6;html=1;" parent="1" source="1515" target="1352" edge="1">
          <mxGeometry relative="1" as="geometry" />
        </mxCell>
        <mxCell id="1362" style="endArrow=none;strokeWidth=6;html=1;" parent="1" source="1515" target="1353" edge="1">
          <mxGeometry relative="1" as="geometry" />
        </mxCell>
        <mxCell id="1363" style="endArrow=none;strokeWidth=6;html=1;" parent="1" source="1515" target="1516" edge="1">
          <mxGeometry relative="1" as="geometry" />
        </mxCell>
        <mxCell id="1364" style="endArrow=none;strokeWidth=6;strokeColor=#736ca8;html=1;exitX=0;exitY=1;exitDx=0;exitDy=0;" parent="1" source="1353" target="1354" edge="1">
          <mxGeometry relative="1" as="geometry" />
        </mxCell>
        <mxCell id="1365" value="" style="edgeStyle=none;endArrow=none;strokeWidth=6;html=1;" parent="1" source="1515" target="1355" edge="1">
          <mxGeometry x="181" y="226.5" width="100" height="100" as="geometry">
            <mxPoint x="181" y="326.5" as="sourcePoint" />
            <mxPoint x="281" y="226.5" as="targetPoint" />
          </mxGeometry>
        </mxCell>
        <mxCell id="1366" value="" style="edgeStyle=none;endArrow=none;strokeWidth=6;html=1;" parent="1" source="1515" target="1356" edge="1">
          <mxGeometry x="181" y="226.5" width="100" height="100" as="geometry">
            <mxPoint x="181" y="326.5" as="sourcePoint" />
            <mxPoint x="281" y="226.5" as="targetPoint" />
          </mxGeometry>
        </mxCell>
        <mxCell id="1515" value="TWEETS" style="ellipse;whiteSpace=wrap;html=1;shadow=0;fontFamily=Helvetica;fontSize=30;fontColor=#ffffff;align=center;strokeColor=#B20000;strokeWidth=6;fillColor=#e51400;fontStyle=1;" parent="1" vertex="1">
          <mxGeometry x="961" y="676.5" width="270" height="270" as="geometry" />
        </mxCell>
        <mxCell id="1516" value="Hashtags" style="ellipse;whiteSpace=wrap;html=1;shadow=0;fontFamily=Helvetica;fontSize=20;fontColor=#FFFFFF;align=center;strokeWidth=3;fillColor=#736ca8;strokeColor=none;" parent="1" vertex="1">
          <mxGeometry x="300" y="560" width="120" height="120" as="geometry" />
        </mxCell>
        <mxCell id="vQJ7U3RXfnn2pzWwkogl-1542" value="&lt;font style=&quot;font-size: 40px&quot;&gt;Post&lt;/font&gt;" style="text;html=1;align=center;verticalAlign=middle;resizable=0;points=[];autosize=1;rotation=-35;" vertex="1" parent="1">
          <mxGeometry x="735" y="1045" width="90" height="30" as="geometry" />
        </mxCell>
        <mxCell id="vQJ7U3RXfnn2pzWwkogl-1543" value="&lt;div style=&quot;font-size: 36px&quot;&gt;&lt;font style=&quot;font-size: 36px&quot;&gt;Mentions&lt;/font&gt;&lt;/div&gt;" style="text;html=1;align=center;verticalAlign=middle;resizable=0;points=[];autosize=1;rotation=-50;" vertex="1" parent="1">
          <mxGeometry x="1270" y="440" width="160" height="20" as="geometry" />
        </mxCell>
        <mxCell id="vQJ7U3RXfnn2pzWwkogl-1547" value="&lt;font style=&quot;font-size: 36px&quot;&gt;Retweets&lt;/font&gt;" style="text;html=1;align=center;verticalAlign=middle;resizable=0;points=[];autosize=1;rotation=0;" vertex="1" parent="1">
          <mxGeometry x="1460" y="785" width="160" height="30" as="geometry" />
        </mxCell>
        <mxCell id="vQJ7U3RXfnn2pzWwkogl-1548" value="&lt;font style=&quot;font-size: 36px&quot;&gt;Replicar&lt;/font&gt;" style="text;html=1;align=center;verticalAlign=middle;resizable=0;points=[];autosize=1;rotation=-60;" vertex="1" parent="1">
          <mxGeometry x="1759" y="1015" width="150" height="30" as="geometry" />
        </mxCell>
        <mxCell id="vQJ7U3RXfnn2pzWwkogl-1549" value="&lt;div style=&quot;font-size: 36px&quot;&gt;Contiene&lt;/div&gt;&lt;div&gt;&lt;br&gt;&lt;/div&gt;" style="text;html=1;align=center;verticalAlign=middle;resizable=0;points=[];autosize=1;rotation=75;" vertex="1" parent="1">
          <mxGeometry x="1130" y="1100" width="160" height="30" as="geometry" />
        </mxCell>
        <mxCell id="vQJ7U3RXfnn2pzWwkogl-1550" value="&lt;div style=&quot;font-size: 36px&quot;&gt;Link&lt;br&gt;&lt;/div&gt;" style="text;html=1;align=center;verticalAlign=middle;resizable=0;points=[];autosize=1;rotation=65;" vertex="1" parent="1">
          <mxGeometry x="920" y="430" width="80" height="20" as="geometry" />
        </mxCell>
        <mxCell id="vQJ7U3RXfnn2pzWwkogl-1551" value="&lt;div style=&quot;font-size: 36px&quot;&gt;Tag&lt;/div&gt;&lt;div style=&quot;font-size: 36px&quot;&gt;&lt;br&gt;&lt;/div&gt;" style="text;html=1;align=center;verticalAlign=middle;resizable=0;points=[];autosize=1;rotation=20;" vertex="1" parent="1">
          <mxGeometry x="640" y="676.5" width="70" height="30" as="geometry" />
        </mxCell>
      </root>
    </mxGraphModel>
  </diagram>
</mxfile>
